<svg width="27" height="26" viewBox="0 0 27 26" fill="none" xmlns="http://www.w3.org/2000/svg">
<g clip-path="url(#clip0_54685_2434)">
<path d="M18.3352 14.8551L14.71 12.2408V6.91553C14.71 6.38008 14.2599 5.94727 13.703 5.94727C13.1462 5.94727 12.696 6.38008 12.696 6.91553V12.725C12.696 13.03 12.8451 13.3176 13.0988 13.4996L17.1267 16.4043C17.3079 16.5351 17.5195 16.598 17.7299 16.598C18.037 16.598 18.3391 16.4653 18.5365 16.2097C18.8709 15.7827 18.7802 15.1756 18.3352 14.8551Z" fill="black"/>
<path d="M13.7031 0.147461C6.53449 0.147461 0.703125 5.75454 0.703125 12.6475C0.703125 19.5404 6.53449 25.1475 13.7031 25.1475C20.8718 25.1475 26.7031 19.5404 26.7031 12.6475C26.7031 5.75454 20.8718 0.147461 13.7031 0.147461ZM13.7031 23.211C7.64619 23.211 2.71706 18.4714 2.71706 12.6475C2.71706 6.82349 7.64619 2.08394 13.7031 2.08394C19.7611 2.08394 24.6892 6.82349 24.6892 12.6475C24.6892 18.4714 19.7601 23.211 13.7031 23.211Z" fill="black"/>
</g>
<defs>
<clipPath id="clip0_54685_2434">
<rect width="26" height="25" fill="white" transform="translate(0.703125 0.147461)"/>
</clipPath>
</defs>
</svg>
