<svg width="37" height="37" viewBox="0 0 37 37" fill="none" xmlns="http://www.w3.org/2000/svg">
<g clip-path="url(#clip0_54685_2441)">
<path d="M6.46353 17.5354C6.56338 17.6338 6.86361 17.9291 7.31839 17.9291H7.33126C7.78604 17.9291 8.08635 17.6338 8.18612 17.5354L8.20384 17.5174C10.9531 14.6279 16.0707 9.24955 13.2615 3.90432L13.2585 3.89877C12.1148 1.76464 9.84564 0.415273 7.3366 0.376953H7.32486H7.31312C4.80409 0.415273 2.53489 1.76464 1.38817 3.90432C-1.42103 9.24955 3.69646 14.6279 6.44581 17.5174L6.46353 17.5354ZM2.75448 4.62945C3.63128 2.99342 5.38178 1.95758 7.32479 1.92397C9.26661 1.95751 11.0162 2.9923 11.8936 4.62657C13.9567 8.55704 10.6789 12.6444 7.32479 16.1964C3.96983 12.6435 0.691017 8.55563 2.75448 4.62945Z" fill="black"/>
<path d="M11.073 7.20218C11.0729 6.46087 10.8531 5.73621 10.4412 5.11983C10.0294 4.50346 9.44399 4.02306 8.7591 3.73939C8.07421 3.45571 7.32058 3.3815 6.59351 3.52614C5.86645 3.67077 5.1986 4.02776 4.67442 4.55196C4.15024 5.07616 3.79328 5.74402 3.64867 6.47109C3.50406 7.19817 3.5783 7.95179 3.862 8.63667C4.1457 9.32155 4.62612 9.90692 5.24251 10.3188C5.8589 10.7306 6.58357 10.9504 7.32488 10.9504C8.31861 10.9493 9.27133 10.554 9.97399 9.85133C10.6767 9.14864 11.0719 8.19592 11.073 7.20218ZM5.12347 7.20218C5.12348 6.7668 5.2526 6.3412 5.49449 5.97921C5.73638 5.61721 6.08019 5.33507 6.48243 5.16846C6.88467 5.00186 7.32728 4.95827 7.75429 5.04321C8.1813 5.12815 8.57354 5.33781 8.8814 5.64567C9.18926 5.95353 9.39891 6.34576 9.48385 6.77277C9.56879 7.19979 9.52521 7.6424 9.3586 8.04464C9.19199 8.44688 8.90985 8.79068 8.54786 9.03257C8.18586 9.27447 7.76026 9.40358 7.32488 9.40359C6.74122 9.40296 6.18165 9.17083 5.76894 8.75812C5.35624 8.34541 5.1241 7.78584 5.12347 7.20218Z" fill="black"/>
<path d="M28.5171 29.5773C28.6168 29.6757 28.9171 29.9711 29.3719 29.9711H29.3848C29.8393 29.9711 30.1397 29.6757 30.2395 29.5773L30.2573 29.5591C33.0065 26.6693 38.1241 21.2912 35.3149 15.946L35.312 15.9405C34.1683 13.8065 31.8991 12.4571 29.3901 12.4189H29.3783H29.3666C26.8575 12.4571 24.5883 13.8065 23.4416 15.946C20.6324 21.2913 25.75 26.6697 28.4993 29.5591L28.5171 29.5773ZM24.8079 16.6716C25.6847 15.0356 27.4352 13.9997 29.3783 13.9662C31.3201 13.9997 33.0697 15.0345 33.947 16.6687C36.0101 20.5992 32.7324 24.6866 29.3783 28.2385C26.0233 24.6858 22.7445 20.5979 24.8079 16.6716Z" fill="black"/>
<path d="M33.1264 19.2452C33.1264 18.5039 32.9066 17.7792 32.4947 17.1629C32.0829 16.5465 31.4975 16.0661 30.8126 15.7824C30.1277 15.4987 29.3741 15.4245 28.647 15.5691C27.92 15.7137 27.2521 16.0707 26.7279 16.5949C26.2037 17.1191 25.8468 17.787 25.7021 18.514C25.5575 19.2411 25.6318 19.9947 25.9155 20.6796C26.1992 21.3645 26.6796 21.9499 27.296 22.3617C27.9124 22.7736 28.637 22.9934 29.3783 22.9934C30.3721 22.9922 31.3248 22.597 32.0274 21.8943C32.7301 21.1916 33.1253 20.2389 33.1264 19.2452ZM27.177 19.2452C27.177 18.8098 27.3061 18.3842 27.548 18.0222C27.7899 17.6602 28.1337 17.3781 28.5359 17.2114C28.9382 17.0448 29.3808 17.0012 29.8078 17.0862C30.2348 17.1711 30.6271 17.3808 30.9349 17.6886C31.2428 17.9965 31.4525 18.3887 31.5374 18.8158C31.6223 19.2428 31.5787 19.6854 31.4121 20.0876C31.2455 20.4899 30.9634 20.8337 30.6013 21.0756C30.2393 21.3175 29.8137 21.4466 29.3783 21.4466C28.7947 21.4459 28.2352 21.2138 27.8225 20.8011C27.4098 20.3884 27.1777 19.8288 27.177 19.2452Z" fill="black"/>
<path d="M31.9293 32.5617C31.7104 32.0308 31.3312 31.5814 30.8446 31.2762C30.358 30.9711 29.7883 30.8255 29.2149 30.8597C28.6416 30.8939 28.0933 31.1062 27.6464 31.467C27.1995 31.8278 26.8764 32.3191 26.7222 32.8724H11.7129C11.3198 32.8697 10.9437 32.7116 10.6667 32.4327C10.3896 32.1537 10.2341 31.7766 10.2341 31.3834C10.2341 30.9903 10.3896 30.6131 10.6667 30.3342C10.9437 30.0552 11.3198 29.8971 11.7129 29.8944H16.2551C17.452 29.8944 18.5998 29.419 19.4461 28.5727C20.2924 27.7264 20.7678 26.5786 20.7678 25.3817C20.7678 24.1849 20.2924 23.037 19.4461 22.1907C18.5998 21.3444 17.452 20.869 16.2551 20.869H9.99294C9.82417 20.2253 9.42886 19.6641 8.8796 19.2884C8.33033 18.9127 7.66398 18.7477 7.00288 18.8238C6.34178 18.8999 5.73031 19.2119 5.28074 19.7025C4.83117 20.1932 4.57367 20.8295 4.55553 21.4947C4.53739 22.1599 4.75982 22.8094 5.18198 23.3238C5.60414 23.8382 6.19769 24.1831 6.85366 24.295C7.50963 24.407 8.18399 24.2787 8.75291 23.9335C9.32184 23.5883 9.74715 23.0494 9.95075 22.4159H16.2552C16.6459 22.414 17.0331 22.4893 17.3946 22.6375C17.7561 22.7857 18.0848 23.0038 18.3617 23.2794C18.6387 23.555 18.8584 23.8826 19.0084 24.2434C19.1583 24.6042 19.2355 24.991 19.2355 25.3818C19.2355 25.7725 19.1583 26.1593 19.0084 26.5201C18.8584 26.8809 18.6387 27.2085 18.3617 27.4841C18.0848 27.7597 17.7561 27.9778 17.3946 28.126C17.0331 28.2742 16.6459 28.3495 16.2552 28.3476H11.713C10.9079 28.3476 10.1357 28.6675 9.5664 29.2368C8.99709 29.8061 8.67725 30.5783 8.67725 31.3834C8.67725 32.1885 8.99709 32.9607 9.5664 33.53C10.1357 34.0993 10.9079 34.4191 11.713 34.4191H26.7382C26.7638 34.503 26.7932 34.5864 26.8273 34.669C27.1089 35.3424 27.6458 35.8768 28.3204 36.1553C28.9951 36.4338 29.7526 36.4338 30.4272 36.1551C31.1019 35.8765 31.6386 35.342 31.9201 34.6686C32.2016 33.9952 32.2049 33.2377 31.9293 32.5618V32.5617ZM7.78801 22.6941C7.56623 22.7857 7.32225 22.8095 7.08695 22.7625C6.85164 22.7154 6.63556 22.5997 6.46604 22.4298C6.29653 22.26 6.18118 22.0437 6.1346 21.8083C6.08801 21.5729 6.11228 21.329 6.20432 21.1074C6.29637 20.8858 6.45207 20.6964 6.65173 20.5633C6.85138 20.4302 7.08603 20.3593 7.32599 20.3595C7.56596 20.3598 7.80046 20.4312 7.99984 20.5647C8.19923 20.6982 8.35454 20.8879 8.44613 21.1097C8.56858 21.4071 8.56805 21.7409 8.44467 22.038C8.3213 22.335 8.08514 22.571 7.78801 22.6941ZM29.8415 34.7367C29.6197 34.8283 29.3757 34.8521 29.1404 34.805C28.9052 34.758 28.6891 34.6422 28.5196 34.4724C28.3501 34.3025 28.2348 34.0863 28.1882 33.8509C28.1417 33.6155 28.166 33.3716 28.258 33.15C28.3501 32.9284 28.5057 32.7391 28.7054 32.606C28.905 32.4729 29.1397 32.402 29.3796 32.4023C29.6195 32.4025 29.854 32.4739 30.0534 32.6074C30.2528 32.7409 30.4081 32.9305 30.4996 33.1523C30.5615 33.2994 30.5936 33.4574 30.5939 33.617C30.5943 33.7766 30.5629 33.9347 30.5017 34.0821C30.4405 34.2295 30.3506 34.3632 30.2372 34.4756C30.1239 34.588 29.9894 34.6767 29.8415 34.7367Z" fill="black"/>
</g>
<defs>
<clipPath id="clip0_54685_2441">
<rect width="36" height="36" fill="white" transform="translate(0.351562 0.376953)"/>
</clipPath>
</defs>
</svg>
